# xmcd
#
# Track frame offsets:
#	150
#	26370
#	46277
#	76088
#	98763
#	119804
#	142799
#	161059
#	182339
#	208323
#	230243
#	249470
#
# Disc length: 3920 seconds
#
# Revision: 2
# Processed by: cddbd v1.5PL3 Copyright (c) Steve Scherf et al.
# Submitted via: audiograbber 1.81.01
#
DISCID=9c0f4e0c
DTITLE=John Hiatt - Live in Bremen
DYEAR=1987
DGENRE=Rock
TTITLE0=Alone in the Dark
TTITLE1=Tennessee Plates
TTITLE2=Tip of my tongue
TTITLE3=Thank you girl
TTITLE4=Learning how to love you
TTITLE5=Love like blood
TTITLE6=Doll Hospital
TTITLE7=She loves the jerk
TTITLE8=Pink bedroom
TTITLE9=Lipstick Sunset
TTITLE10=I don't even try
TTITLE11=Band intro and radio girl
EXTD=
EXTT0=
EXTT1=
EXTT2=
EXTT3=
EXTT4=
EXTT5=
EXTT6=
EXTT7=
EXTT8=
EXTT9=
EXTT10=
EXTT11=
PLAYORDER=
